<?xml version="1.0" encoding="UTF-8" standalone="no"?>
<!-- Created with Inkscape (http://www.inkscape.org/) -->

<svg
   xmlns:dc="http://purl.org/dc/elements/1.1/"
   xmlns:cc="http://creativecommons.org/ns#"
   xmlns:rdf="http://www.w3.org/1999/02/22-rdf-syntax-ns#"
   xmlns:svg="http://www.w3.org/2000/svg"
   xmlns="http://www.w3.org/2000/svg"
   xmlns:xlink="http://www.w3.org/1999/xlink"
   xmlns:sodipodi="http://sodipodi.sourceforge.net/DTD/sodipodi-0.dtd"
   xmlns:inkscape="http://www.inkscape.org/namespaces/inkscape"
   width="210mm"
   height="297mm"
   id="svg2"
   version="1.1"
   inkscape:version="0.47pre4 r22446"
   sodipodi:docname="robotqt.svg">
  <defs
     id="defs4">
    <linearGradient
       id="linearGradient4593">
      <stop
         id="stop4595"
         offset="0"
         style="stop-color:#ffffff;stop-opacity:0.64233571;" />
      <stop
         id="stop4597"
         offset="1"
         style="stop-color:#ffffff;stop-opacity:0;" />
    </linearGradient>
    <linearGradient
       inkscape:collect="always"
       id="linearGradient4469">
      <stop
         style="stop-color:#b3b3b3;stop-opacity:1;"
         offset="0"
         id="stop4471" />
      <stop
         style="stop-color:#b3b3b3;stop-opacity:0;"
         offset="1"
         id="stop4473" />
    </linearGradient>
    <linearGradient
       inkscape:collect="always"
       id="linearGradient4461">
      <stop
         style="stop-color:#808080;stop-opacity:1;"
         offset="0"
         id="stop4463" />
      <stop
         style="stop-color:#808080;stop-opacity:0;"
         offset="1"
         id="stop4465" />
    </linearGradient>
    <linearGradient
       inkscape:collect="always"
       id="linearGradient4382">
      <stop
         style="stop-color:#024c1c;stop-opacity:1"
         offset="0"
         id="stop4384" />
      <stop
         style="stop-color:#5aa72d;stop-opacity:1"
         offset="1"
         id="stop4386" />
    </linearGradient>
    <linearGradient
       inkscape:collect="always"
       id="linearGradient3786">
      <stop
         style="stop-color:#6f7c91;stop-opacity:1"
         offset="0"
         id="stop3788" />
      <stop
         id="stop3794"
         offset="0.52202141"
         style="stop-color:#657184;stop-opacity:1;" />
      <stop
         style="stop-color:#373e48;stop-opacity:1"
         offset="1"
         id="stop3790" />
    </linearGradient>
    <linearGradient
       id="linearGradient3726">
      <stop
         style="stop-color:#aaaaff;stop-opacity:1"
         offset="0"
         id="stop3728" />
      <stop
         id="stop3734"
         offset="0.2"
         style="stop-color:#5555ff;stop-opacity:1" />
      <stop
         style="stop-color:#00002b;stop-opacity:1"
         offset="1"
         id="stop3730" />
    </linearGradient>
    <linearGradient
       inkscape:collect="always"
       id="linearGradient3712">
      <stop
         style="stop-color:#ffffff;stop-opacity:1;"
         offset="0"
         id="stop3714" />
      <stop
         style="stop-color:#ffffff;stop-opacity:0;"
         offset="1"
         id="stop3716" />
    </linearGradient>
    <linearGradient
       inkscape:collect="always"
       id="linearGradient3680">
      <stop
         style="stop-color:#000000;stop-opacity:1;"
         offset="0"
         id="stop3682" />
      <stop
         style="stop-color:#000000;stop-opacity:0;"
         offset="1"
         id="stop3684" />
    </linearGradient>
    <linearGradient
       inkscape:collect="always"
       id="linearGradient3615">
      <stop
         style="stop-color:#cccccc;stop-opacity:1"
         offset="0"
         id="stop3617" />
      <stop
         id="stop3623"
         offset="0.88859582"
         style="stop-color:#999999;stop-opacity:1" />
      <stop
         style="stop-color:#999999;stop-opacity:1"
         offset="1"
         id="stop3619" />
    </linearGradient>
    <linearGradient
       inkscape:collect="always"
       id="linearGradient3607">
      <stop
         style="stop-color:#b9b9b9;stop-opacity:1;"
         offset="0"
         id="stop3609" />
      <stop
         style="stop-color:#ececec;stop-opacity:1"
         offset="1"
         id="stop3611" />
    </linearGradient>
    <inkscape:perspective
       sodipodi:type="inkscape:persp3d"
       inkscape:vp_x="0 : 526.18109 : 1"
       inkscape:vp_y="0 : 1000 : 0"
       inkscape:vp_z="744.09448 : 526.18109 : 1"
       inkscape:persp3d-origin="372.04724 : 350.78739 : 1"
       id="perspective10" />
    <radialGradient
       inkscape:collect="always"
       xlink:href="#linearGradient3615"
       id="radialGradient3621"
       cx="269.87173"
       cy="132.06404"
       fx="269.87173"
       fy="132.06404"
       r="40.634455"
       gradientTransform="matrix(1,-0.22027498,0.09532127,0.43273875,-14.960253,137.51609)"
       gradientUnits="userSpaceOnUse" />
    <radialGradient
       inkscape:collect="always"
       xlink:href="#linearGradient3607"
       id="radialGradient3625"
       cx="217.46652"
       cy="131.45132"
       fx="217.46652"
       fy="131.45132"
       r="29.421875"
       gradientTransform="matrix(1.7890145,0.74561871,-0.28684067,0.68823663,-135.04831,-122.56763)"
       gradientUnits="userSpaceOnUse" />
    <radialGradient
       inkscape:collect="always"
       xlink:href="#linearGradient3607"
       id="radialGradient3627"
       cx="213.85959"
       cy="151.24094"
       fx="213.85959"
       fy="151.24094"
       r="24.921875"
       gradientTransform="matrix(2.4128747,1.1636727,-0.45998776,0.9537844,-230.72194,-243.24997)"
       gradientUnits="userSpaceOnUse" />
    <radialGradient
       inkscape:collect="always"
       xlink:href="#linearGradient3607"
       id="radialGradient3629"
       cx="270.45633"
       cy="130.80814"
       fx="270.45633"
       fy="130.80814"
       r="41.78125"
       gradientTransform="matrix(-1.0939846,1.0939846,-1.1048279,-1.1048279,718.45263,-12.468313)"
       gradientUnits="userSpaceOnUse" />
    <radialGradient
       inkscape:collect="always"
       xlink:href="#linearGradient3607"
       id="radialGradient3631"
       cx="280.80032"
       cy="115.88828"
       fx="280.80032"
       fy="115.88828"
       r="26.671875"
       gradientTransform="matrix(1.9847065,1.2403512,-0.22460199,0.35938935,-249.01092,-277.47129)"
       gradientUnits="userSpaceOnUse" />
    <filter
       inkscape:collect="always"
       id="filter3676">
      <feGaussianBlur
         inkscape:collect="always"
         stdDeviation="2.8006413"
         id="feGaussianBlur3678" />
    </filter>
    <linearGradient
       inkscape:collect="always"
       xlink:href="#linearGradient3680"
       id="linearGradient3686"
       x1="268.57144"
       y1="90.781059"
       x2="268.57144"
       y2="157.36218"
       gradientUnits="userSpaceOnUse" />
    <clipPath
       clipPathUnits="userSpaceOnUse"
       id="clipPath3688">
      <path
         style="fill:#000000;fill-opacity:1;stroke:none"
         d="m 292.125,112.4375 c 6.9056,0.28854 11.90625,5.37327 11.90625,13 0,9.38676 -7.55075,18.95358 -16.9375,21.46875 l -39.1875,10.5 c -9.38675,2.51518 -16.9375,-3.01949 -16.9375,-12.40625 0,-9.38675 7.55075,-18.95358 16.9375,-21.46875 l 39.1875,-10.5 c 1.76002,-0.4716 3.43765,-0.66034 5.03125,-0.59375 z"
         id="path3690" />
    </clipPath>
    <radialGradient
       inkscape:collect="always"
       xlink:href="#linearGradient3607"
       id="radialGradient3704"
       gradientUnits="userSpaceOnUse"
       gradientTransform="matrix(2.2842534,-0.61206607,0.16954357,0.6327451,-369.99108,205.31581)"
       cx="266.19284"
       cy="170.65865"
       fx="266.19284"
       fy="170.65865"
       r="40.634457" />
    <linearGradient
       inkscape:collect="always"
       xlink:href="#linearGradient3712"
       id="linearGradient3718"
       x1="203.0703"
       y1="96.762756"
       x2="203.0703"
       y2="126.80112"
       gradientUnits="userSpaceOnUse"
       gradientTransform="matrix(1.0394334,0,0,1.0394334,-9.5229852,-5.140572)" />
    <linearGradient
       inkscape:collect="always"
       xlink:href="#linearGradient3712"
       id="linearGradient3720"
       x1="211.02205"
       y1="92.542297"
       x2="223.24371"
       y2="126.80112"
       gradientUnits="userSpaceOnUse"
       gradientTransform="matrix(1.1027453,0,0,1.1027453,-24.014192,-11.032488)" />
    <linearGradient
       inkscape:collect="always"
       xlink:href="#linearGradient3680"
       id="linearGradient3776"
       gradientUnits="userSpaceOnUse"
       x1="268.57144"
       y1="90.781059"
       x2="268.57144"
       y2="157.36218" />
    <filter
       inkscape:collect="always"
       id="filter3800"
       x="-0.12743685"
       width="1.2548737"
       y="-0.11338328"
       height="1.2267666">
      <feGaussianBlur
         inkscape:collect="always"
         stdDeviation="1.1416218"
         id="feGaussianBlur3802" />
    </filter>
    <radialGradient
       inkscape:collect="always"
       xlink:href="#linearGradient3786"
       id="radialGradient3813"
       gradientUnits="userSpaceOnUse"
       gradientTransform="matrix(0.66382917,-0.92224024,0.91220857,0.65660757,-112.02718,375.27435)"
       cx="365.15994"
       cy="152.74925"
       fx="365.15994"
       fy="152.74925"
       r="10.75" />
    <radialGradient
       inkscape:collect="always"
       xlink:href="#linearGradient3786"
       id="radialGradient3815"
       gradientUnits="userSpaceOnUse"
       cx="374.64285"
       cy="125.21932"
       fx="374.64285"
       fy="125.21932"
       r="13.928572" />
    <radialGradient
       inkscape:collect="always"
       xlink:href="#linearGradient3726"
       id="radialGradient3817"
       gradientUnits="userSpaceOnUse"
       cx="374.64285"
       cy="125.21932"
       fx="374.64285"
       fy="125.21932"
       r="13.928572" />
    <radialGradient
       inkscape:collect="always"
       xlink:href="#linearGradient3712"
       id="radialGradient3819"
       gradientUnits="userSpaceOnUse"
       gradientTransform="matrix(2.7466587,0,0,2.1361072,-750.95785,-157.66707)"
       cx="376.04346"
       cy="142.73883"
       fx="376.04346"
       fy="142.73883"
       r="8.28125" />
    <radialGradient
       inkscape:collect="always"
       xlink:href="#linearGradient3786"
       id="radialGradient3837"
       gradientUnits="userSpaceOnUse"
       gradientTransform="matrix(0.66382917,-0.92224024,0.91220857,0.65660757,-112.02718,375.27435)"
       cx="365.15994"
       cy="152.74925"
       fx="365.15994"
       fy="152.74925"
       r="10.75" />
    <radialGradient
       inkscape:collect="always"
       xlink:href="#linearGradient3786"
       id="radialGradient3839"
       gradientUnits="userSpaceOnUse"
       cx="374.64285"
       cy="125.21932"
       fx="374.64285"
       fy="125.21932"
       r="13.928572" />
    <radialGradient
       inkscape:collect="always"
       xlink:href="#linearGradient3726"
       id="radialGradient3841"
       gradientUnits="userSpaceOnUse"
       cx="374.64285"
       cy="125.21932"
       fx="374.64285"
       fy="125.21932"
       r="13.928572" />
    <radialGradient
       inkscape:collect="always"
       xlink:href="#linearGradient3712"
       id="radialGradient3843"
       gradientUnits="userSpaceOnUse"
       gradientTransform="matrix(2.7466587,0,0,2.1361072,-750.95785,-157.66707)"
       cx="376.04346"
       cy="142.73883"
       fx="376.04346"
       fy="142.73883"
       r="8.28125" />
    <inkscape:perspective
       id="perspective3967"
       inkscape:persp3d-origin="0.5 : 0.33333333 : 1"
       inkscape:vp_z="1 : 0.5 : 1"
       inkscape:vp_y="0 : 1000 : 0"
       inkscape:vp_x="0 : 0.5 : 1"
       sodipodi:type="inkscape:persp3d" />
    <linearGradient
       inkscape:collect="always"
       xlink:href="#linearGradient3680"
       id="linearGradient4118"
       gradientUnits="userSpaceOnUse"
       x1="268.57144"
       y1="90.781059"
       x2="268.57144"
       y2="157.36218" />
    <filter
       inkscape:collect="always"
       id="filter4371"
       x="-0.098529755"
       width="1.1970595"
       y="-0.15343428"
       height="1.3068686">
      <feGaussianBlur
         inkscape:collect="always"
         stdDeviation="4.5216257"
         id="feGaussianBlur4373" />
    </filter>
    <filter
       inkscape:collect="always"
       id="filter4394"
       x="-0.12506205"
       width="1.2501241"
       y="-0.11533179"
       height="1.2306636">
      <feGaussianBlur
         inkscape:collect="always"
         stdDeviation="2.3688116"
         id="feGaussianBlur4396" />
    </filter>
    <linearGradient
       inkscape:collect="always"
       xlink:href="#linearGradient4382"
       id="linearGradient4403"
       gradientUnits="userSpaceOnUse"
       gradientTransform="translate(44,64)"
       x1="199.00005"
       y1="54.331467"
       x2="239.40616"
       y2="5.3390684" />
    <linearGradient
       inkscape:collect="always"
       xlink:href="#linearGradient4461"
       id="linearGradient4467"
       x1="78.571426"
       y1="84.502419"
       x2="78.571426"
       y2="178.08926"
       gradientUnits="userSpaceOnUse"
       gradientTransform="translate(167.14286,12.857143)" />
    <linearGradient
       inkscape:collect="always"
       xlink:href="#linearGradient4469"
       id="linearGradient4475"
       x1="98.351234"
       y1="58.531643"
       x2="98.351234"
       y2="201.5764"
       gradientUnits="userSpaceOnUse"
       gradientTransform="translate(173.03902,57.642937)" />
    <linearGradient
       inkscape:collect="always"
       xlink:href="#linearGradient4461"
       id="linearGradient4481"
       gradientUnits="userSpaceOnUse"
       gradientTransform="translate(167.14286,12.857143)"
       x1="78.571426"
       y1="84.502419"
       x2="78.571426"
       y2="178.08926" />
    <linearGradient
       inkscape:collect="always"
       xlink:href="#linearGradient4469"
       id="linearGradient4483"
       gradientUnits="userSpaceOnUse"
       gradientTransform="translate(173.03902,57.642937)"
       x1="98.351234"
       y1="58.531643"
       x2="98.351234"
       y2="201.5764" />
    <linearGradient
       inkscape:collect="always"
       xlink:href="#linearGradient4461"
       id="linearGradient4531"
       gradientUnits="userSpaceOnUse"
       gradientTransform="translate(167.14286,12.857143)"
       x1="78.571426"
       y1="84.502419"
       x2="78.571426"
       y2="178.08926" />
    <linearGradient
       inkscape:collect="always"
       xlink:href="#linearGradient4469"
       id="linearGradient4533"
       gradientUnits="userSpaceOnUse"
       gradientTransform="translate(173.03902,57.642937)"
       x1="98.351234"
       y1="58.531643"
       x2="98.351234"
       y2="201.5764" />
    <radialGradient
       inkscape:collect="always"
       xlink:href="#linearGradient3615"
       id="radialGradient4535"
       gradientUnits="userSpaceOnUse"
       gradientTransform="matrix(1,-0.22027498,0.09532127,0.43273875,-14.960253,137.51609)"
       cx="269.87173"
       cy="132.06404"
       fx="269.87173"
       fy="132.06404"
       r="40.634455" />
    <radialGradient
       inkscape:collect="always"
       xlink:href="#linearGradient3607"
       id="radialGradient4537"
       gradientUnits="userSpaceOnUse"
       gradientTransform="matrix(2.2842534,-0.61206607,0.16954357,0.6327451,-369.99108,205.31581)"
       cx="266.19284"
       cy="170.65865"
       fx="266.19284"
       fy="170.65865"
       r="40.634457" />
    <linearGradient
       inkscape:collect="always"
       xlink:href="#linearGradient3680"
       id="linearGradient4539"
       gradientUnits="userSpaceOnUse"
       x1="268.57144"
       y1="90.781059"
       x2="268.57144"
       y2="157.36218" />
    <radialGradient
       inkscape:collect="always"
       xlink:href="#linearGradient3607"
       id="radialGradient4541"
       gradientUnits="userSpaceOnUse"
       gradientTransform="matrix(1.9847065,1.2403512,-0.22460199,0.35938935,-249.01092,-277.47129)"
       cx="280.80032"
       cy="115.88828"
       fx="280.80032"
       fy="115.88828"
       r="26.671875" />
    <radialGradient
       inkscape:collect="always"
       xlink:href="#linearGradient3607"
       id="radialGradient4543"
       gradientUnits="userSpaceOnUse"
       gradientTransform="matrix(-1.0939846,1.0939846,-1.1048279,-1.1048279,718.45263,-12.468313)"
       cx="270.45633"
       cy="130.80814"
       fx="270.45633"
       fy="130.80814"
       r="41.78125" />
    <radialGradient
       inkscape:collect="always"
       xlink:href="#linearGradient3607"
       id="radialGradient4545"
       gradientUnits="userSpaceOnUse"
       gradientTransform="matrix(1.7890145,0.74561871,-0.28684067,0.68823663,-135.04831,-122.56763)"
       cx="217.46652"
       cy="131.45132"
       fx="217.46652"
       fy="131.45132"
       r="29.421875" />
    <radialGradient
       inkscape:collect="always"
       xlink:href="#linearGradient3607"
       id="radialGradient4547"
       gradientUnits="userSpaceOnUse"
       gradientTransform="matrix(2.4128747,1.1636727,-0.45998776,0.9537844,-230.72194,-243.24997)"
       cx="213.85959"
       cy="151.24094"
       fx="213.85959"
       fy="151.24094"
       r="24.921875" />
    <linearGradient
       inkscape:collect="always"
       xlink:href="#linearGradient3712"
       id="linearGradient4549"
       gradientUnits="userSpaceOnUse"
       gradientTransform="matrix(1.1027453,0,0,1.1027453,-24.014192,-11.032488)"
       x1="211.02205"
       y1="92.542297"
       x2="223.24371"
       y2="126.80112" />
    <linearGradient
       inkscape:collect="always"
       xlink:href="#linearGradient3712"
       id="linearGradient4551"
       gradientUnits="userSpaceOnUse"
       gradientTransform="matrix(1.0394334,0,0,1.0394334,-9.5229852,-5.140572)"
       x1="203.0703"
       y1="96.762756"
       x2="203.0703"
       y2="126.80112" />
    <radialGradient
       inkscape:collect="always"
       xlink:href="#linearGradient3786"
       id="radialGradient4553"
       gradientUnits="userSpaceOnUse"
       gradientTransform="matrix(0.66382917,-0.92224024,0.91220857,0.65660757,-112.02718,375.27435)"
       cx="365.15994"
       cy="152.74925"
       fx="365.15994"
       fy="152.74925"
       r="10.75" />
    <radialGradient
       inkscape:collect="always"
       xlink:href="#linearGradient3786"
       id="radialGradient4555"
       gradientUnits="userSpaceOnUse"
       cx="374.64285"
       cy="125.21932"
       fx="374.64285"
       fy="125.21932"
       r="13.928572" />
    <radialGradient
       inkscape:collect="always"
       xlink:href="#linearGradient3726"
       id="radialGradient4557"
       gradientUnits="userSpaceOnUse"
       cx="374.64285"
       cy="125.21932"
       fx="374.64285"
       fy="125.21932"
       r="13.928572" />
    <radialGradient
       inkscape:collect="always"
       xlink:href="#linearGradient3712"
       id="radialGradient4559"
       gradientUnits="userSpaceOnUse"
       gradientTransform="matrix(2.7466587,0,0,2.1361072,-750.95785,-157.66707)"
       cx="376.04346"
       cy="142.73883"
       fx="376.04346"
       fy="142.73883"
       r="8.28125" />
    <radialGradient
       inkscape:collect="always"
       xlink:href="#linearGradient3786"
       id="radialGradient4561"
       gradientUnits="userSpaceOnUse"
       gradientTransform="matrix(0.66382917,-0.92224024,0.91220857,0.65660757,-112.02718,375.27435)"
       cx="365.15994"
       cy="152.74925"
       fx="365.15994"
       fy="152.74925"
       r="10.75" />
    <radialGradient
       inkscape:collect="always"
       xlink:href="#linearGradient3786"
       id="radialGradient4563"
       gradientUnits="userSpaceOnUse"
       cx="374.64285"
       cy="125.21932"
       fx="374.64285"
       fy="125.21932"
       r="13.928572" />
    <radialGradient
       inkscape:collect="always"
       xlink:href="#linearGradient3726"
       id="radialGradient4565"
       gradientUnits="userSpaceOnUse"
       cx="374.64285"
       cy="125.21932"
       fx="374.64285"
       fy="125.21932"
       r="13.928572" />
    <radialGradient
       inkscape:collect="always"
       xlink:href="#linearGradient3712"
       id="radialGradient4567"
       gradientUnits="userSpaceOnUse"
       gradientTransform="matrix(2.7466587,0,0,2.1361072,-750.95785,-157.66707)"
       cx="376.04346"
       cy="142.73883"
       fx="376.04346"
       fy="142.73883"
       r="8.28125" />
    <linearGradient
       inkscape:collect="always"
       xlink:href="#linearGradient4382"
       id="linearGradient4569"
       gradientUnits="userSpaceOnUse"
       gradientTransform="translate(44,64)"
       x1="199.00005"
       y1="54.331467"
       x2="239.40616"
       y2="5.3390684" />
    <radialGradient
       inkscape:collect="always"
       xlink:href="#linearGradient4593"
       id="radialGradient4591"
       cx="255.3562"
       cy="734.82355"
       fx="255.3562"
       fy="734.82355"
       r="66.609375"
       gradientTransform="matrix(-3.3878433,1.9741664e-6,-3.1503374e-8,-0.3100368,1126.7363,414.48329)"
       gradientUnits="userSpaceOnUse" />
    <linearGradient
       inkscape:collect="always"
       xlink:href="#linearGradient4461"
       id="linearGradient4642"
       gradientUnits="userSpaceOnUse"
       gradientTransform="translate(167.14286,12.857143)"
       x1="78.571426"
       y1="84.502419"
       x2="78.571426"
       y2="178.08926" />
    <linearGradient
       inkscape:collect="always"
       xlink:href="#linearGradient4469"
       id="linearGradient4644"
       gradientUnits="userSpaceOnUse"
       gradientTransform="translate(173.03902,57.642937)"
       x1="98.351234"
       y1="58.531643"
       x2="98.351234"
       y2="201.5764" />
    <radialGradient
       inkscape:collect="always"
       xlink:href="#linearGradient3615"
       id="radialGradient4646"
       gradientUnits="userSpaceOnUse"
       gradientTransform="matrix(1,-0.22027498,0.09532127,0.43273875,-14.960253,137.51609)"
       cx="269.87173"
       cy="132.06404"
       fx="269.87173"
       fy="132.06404"
       r="40.634455" />
    <radialGradient
       inkscape:collect="always"
       xlink:href="#linearGradient3607"
       id="radialGradient4648"
       gradientUnits="userSpaceOnUse"
       gradientTransform="matrix(2.2842534,-0.61206607,0.16954357,0.6327451,-369.99108,205.31581)"
       cx="266.19284"
       cy="170.65865"
       fx="266.19284"
       fy="170.65865"
       r="40.634457" />
    <linearGradient
       inkscape:collect="always"
       xlink:href="#linearGradient3680"
       id="linearGradient4650"
       gradientUnits="userSpaceOnUse"
       x1="268.57144"
       y1="90.781059"
       x2="268.57144"
       y2="157.36218" />
    <radialGradient
       inkscape:collect="always"
       xlink:href="#linearGradient3607"
       id="radialGradient4652"
       gradientUnits="userSpaceOnUse"
       gradientTransform="matrix(1.9847065,1.2403512,-0.22460199,0.35938935,-249.01092,-277.47129)"
       cx="280.80032"
       cy="115.88828"
       fx="280.80032"
       fy="115.88828"
       r="26.671875" />
    <radialGradient
       inkscape:collect="always"
       xlink:href="#linearGradient3607"
       id="radialGradient4654"
       gradientUnits="userSpaceOnUse"
       gradientTransform="matrix(-1.0939846,1.0939846,-1.1048279,-1.1048279,718.45263,-12.468313)"
       cx="270.45633"
       cy="130.80814"
       fx="270.45633"
       fy="130.80814"
       r="41.78125" />
    <radialGradient
       inkscape:collect="always"
       xlink:href="#linearGradient3607"
       id="radialGradient4656"
       gradientUnits="userSpaceOnUse"
       gradientTransform="matrix(1.7890145,0.74561871,-0.28684067,0.68823663,-135.04831,-122.56763)"
       cx="217.46652"
       cy="131.45132"
       fx="217.46652"
       fy="131.45132"
       r="29.421875" />
    <radialGradient
       inkscape:collect="always"
       xlink:href="#linearGradient3607"
       id="radialGradient4658"
       gradientUnits="userSpaceOnUse"
       gradientTransform="matrix(2.4128747,1.1636727,-0.45998776,0.9537844,-230.72194,-243.24997)"
       cx="213.85959"
       cy="151.24094"
       fx="213.85959"
       fy="151.24094"
       r="24.921875" />
    <linearGradient
       inkscape:collect="always"
       xlink:href="#linearGradient3712"
       id="linearGradient4660"
       gradientUnits="userSpaceOnUse"
       gradientTransform="matrix(1.1027453,0,0,1.1027453,-24.014192,-11.032488)"
       x1="211.02205"
       y1="92.542297"
       x2="223.24371"
       y2="126.80112" />
    <linearGradient
       inkscape:collect="always"
       xlink:href="#linearGradient3712"
       id="linearGradient4662"
       gradientUnits="userSpaceOnUse"
       gradientTransform="matrix(1.0394334,0,0,1.0394334,-9.5229852,-5.140572)"
       x1="203.0703"
       y1="96.762756"
       x2="203.0703"
       y2="126.80112" />
    <radialGradient
       inkscape:collect="always"
       xlink:href="#linearGradient3786"
       id="radialGradient4664"
       gradientUnits="userSpaceOnUse"
       gradientTransform="matrix(0.66382917,-0.92224024,0.91220857,0.65660757,-112.02718,375.27435)"
       cx="365.15994"
       cy="152.74925"
       fx="365.15994"
       fy="152.74925"
       r="10.75" />
    <radialGradient
       inkscape:collect="always"
       xlink:href="#linearGradient3786"
       id="radialGradient4666"
       gradientUnits="userSpaceOnUse"
       cx="374.64285"
       cy="125.21932"
       fx="374.64285"
       fy="125.21932"
       r="13.928572" />
    <radialGradient
       inkscape:collect="always"
       xlink:href="#linearGradient3726"
       id="radialGradient4668"
       gradientUnits="userSpaceOnUse"
       cx="374.64285"
       cy="125.21932"
       fx="374.64285"
       fy="125.21932"
       r="13.928572" />
    <radialGradient
       inkscape:collect="always"
       xlink:href="#linearGradient3712"
       id="radialGradient4670"
       gradientUnits="userSpaceOnUse"
       gradientTransform="matrix(2.7466587,0,0,2.1361072,-750.95785,-157.66707)"
       cx="376.04346"
       cy="142.73883"
       fx="376.04346"
       fy="142.73883"
       r="8.28125" />
    <radialGradient
       inkscape:collect="always"
       xlink:href="#linearGradient3786"
       id="radialGradient4672"
       gradientUnits="userSpaceOnUse"
       gradientTransform="matrix(0.66382917,-0.92224024,0.91220857,0.65660757,-112.02718,375.27435)"
       cx="365.15994"
       cy="152.74925"
       fx="365.15994"
       fy="152.74925"
       r="10.75" />
    <radialGradient
       inkscape:collect="always"
       xlink:href="#linearGradient3786"
       id="radialGradient4674"
       gradientUnits="userSpaceOnUse"
       cx="374.64285"
       cy="125.21932"
       fx="374.64285"
       fy="125.21932"
       r="13.928572" />
    <radialGradient
       inkscape:collect="always"
       xlink:href="#linearGradient3726"
       id="radialGradient4676"
       gradientUnits="userSpaceOnUse"
       cx="374.64285"
       cy="125.21932"
       fx="374.64285"
       fy="125.21932"
       r="13.928572" />
    <radialGradient
       inkscape:collect="always"
       xlink:href="#linearGradient3712"
       id="radialGradient4678"
       gradientUnits="userSpaceOnUse"
       gradientTransform="matrix(2.7466587,0,0,2.1361072,-750.95785,-157.66707)"
       cx="376.04346"
       cy="142.73883"
       fx="376.04346"
       fy="142.73883"
       r="8.28125" />
    <linearGradient
       inkscape:collect="always"
       xlink:href="#linearGradient4382"
       id="linearGradient4680"
       gradientUnits="userSpaceOnUse"
       gradientTransform="translate(44,64)"
       x1="199.00005"
       y1="54.331467"
       x2="239.40616"
       y2="5.3390684" />
    <radialGradient
       inkscape:collect="always"
       xlink:href="#linearGradient4593"
       id="radialGradient4682"
       gradientUnits="userSpaceOnUse"
       gradientTransform="matrix(-3.3878433,1.9741664e-6,-3.1503374e-8,-0.3100368,1126.7363,414.48329)"
       cx="255.3562"
       cy="734.82355"
       fx="255.3562"
       fy="734.82355"
       r="66.609375" />
    <linearGradient
       inkscape:collect="always"
       xlink:href="#linearGradient4469"
       id="linearGradient4709"
       gradientUnits="userSpaceOnUse"
       gradientTransform="translate(173.03902,57.642937)"
       x1="98.351234"
       y1="58.531643"
       x2="98.351234"
       y2="201.5764" />
    <radialGradient
       inkscape:collect="always"
       xlink:href="#linearGradient3786"
       id="radialGradient4711"
       gradientUnits="userSpaceOnUse"
       cx="374.64285"
       cy="125.21932"
       fx="374.64285"
       fy="125.21932"
       r="13.928572" />
    <radialGradient
       inkscape:collect="always"
       xlink:href="#linearGradient3726"
       id="radialGradient4713"
       gradientUnits="userSpaceOnUse"
       cx="374.64285"
       cy="125.21932"
       fx="374.64285"
       fy="125.21932"
       r="13.928572" />
    <radialGradient
       inkscape:collect="always"
       xlink:href="#linearGradient3786"
       id="radialGradient4715"
       gradientUnits="userSpaceOnUse"
       cx="374.64285"
       cy="125.21932"
       fx="374.64285"
       fy="125.21932"
       r="13.928572" />
    <radialGradient
       inkscape:collect="always"
       xlink:href="#linearGradient3726"
       id="radialGradient4717"
       gradientUnits="userSpaceOnUse"
       cx="374.64285"
       cy="125.21932"
       fx="374.64285"
       fy="125.21932"
       r="13.928572" />
    <radialGradient
       inkscape:collect="always"
       xlink:href="#linearGradient4593"
       id="radialGradient4720"
       gradientUnits="userSpaceOnUse"
       gradientTransform="matrix(-7.6142703,4.4369929e-6,-7.0804693e-8,-0.69681617,2197.4707,816.48237)"
       cx="255.3562"
       cy="734.82355"
       fx="255.3562"
       fy="734.82355"
       r="66.609375" />
  </defs>
  <sodipodi:namedview
     id="base"
     pagecolor="#ffffff"
     bordercolor="#666666"
     borderopacity="1.0"
     inkscape:pageopacity="0.0"
     inkscape:pageshadow="2"
     inkscape:zoom="0.7"
     inkscape:cx="343.88078"
     inkscape:cy="878.16493"
     inkscape:document-units="px"
     inkscape:current-layer="layer1"
     showgrid="false"
     showguides="true"
     inkscape:guide-bbox="true"
     inkscape:snap-global="false"
     inkscape:window-width="1280"
     inkscape:window-height="727"
     inkscape:window-x="0"
     inkscape:window-y="25"
     inkscape:window-maximized="1" />
  <metadata
     id="metadata7">
    <rdf:RDF>
      <cc:Work
         rdf:about="">
        <dc:format>image/svg+xml</dc:format>
        <dc:type
           rdf:resource="http://purl.org/dc/dcmitype/StillImage" />
        <dc:title></dc:title>
      </cc:Work>
    </rdf:RDF>
  </metadata>
  <g
     inkscape:label="Camada 1"
     inkscape:groupmode="layer"
     id="layer1">
    <g
       id="g4495"
       transform="matrix(2.2475273,0,0,2.2475273,-334.89991,-115.08014)"
       inkscape:export-filename="/media/93DB-E501/icon.png"
       inkscape:export-xdpi="360.01999"
       inkscape:export-ydpi="360.01999">
      <g
         transform="matrix(0.62449277,0,0,0.62449277,78.777024,73.545724)"
         id="g4477">
        <path
           style="fill:url(#linearGradient4642);fill-opacity:1;stroke:none"
           d="m 225.76669,115.04911 0,75.35713 32.20606,16.10303 0,-75.35713 -32.20606,-16.10303 z"
           id="rect4453"
           sodipodi:nodetypes="ccccc" />
        <path
           id="rect4451"
           d="m 267.06934,200.28535 43.46388,0 0,75.33916 -43.46388,0 0,-75.33916 z"
           style="fill:url(#linearGradient4709);fill-opacity:1;stroke:none"
           transform="matrix(0.96592583,-0.25881905,0,1,0,0)" />
      </g>
      <g
         id="g4419">
        <path
           style="fill:#000000;fill-opacity:0.5414847;stroke:none;filter:url(#filter4371)"
           d="m 247.45108,109.875 c -1.24667,0.0512 -2.55505,0.26278 -3.88891,0.65625 l -39.57031,11.6875 c -9.48525,2.79798 -17.11686,13.4328 -17.11686,23.875 0,5.2211 1.90241,9.3774 4.99597,11.875 0.77339,0.6244 1.64564,1.08189 2.52636,1.5625 l 35.02853,19.28125 c 0.42248,0.2589 0.85048,0.51499 1.30577,0.71875 0.43957,0.24196 0.93025,0.39397 1.4193,0.53125 2.42638,0.73174 5.21108,0.71812 8.17522,-0.15625 l 39.57031,-11.6875 c 9.48525,-2.79798 17.11686,-13.43279 17.11686,-23.875 0,-6.52638 -2.96945,-11.3999 -7.52233,-13.4375 L 253.49733,111.0625 c -1.4213,-0.78222 -3.08113,-1.10725 -4.82565,-1.1875 -0.40258,-0.0185 -0.80505,-0.0171 -1.2206,0 z m 36.33429,20 c 0.4154,-0.0179 0.81747,-0.018 1.2206,0 0.50435,0.0225 0.99316,0.079 1.47608,0.15625 -0.48602,-0.0788 -0.96834,-0.13289 -1.47608,-0.15625 -0.53677,-0.0247 -1.08811,-0.008 -1.64639,0.0312 -0.55829,0.0395 -1.1262,0.11268 -1.70317,0.21875 -0.57697,0.10607 -1.16712,0.23138 -1.75995,0.40625 0.59233,-0.17473 1.18304,-0.29984 1.75995,-0.40625 0.57788,-0.10659 1.14375,-0.17857 1.70317,-0.21875 0.13973,-0.01 0.28732,-0.0253 0.42579,-0.0312 z m -60.57608,36.21875 c 0,0.55658 0.0426,1.09349 0.0852,1.625 -0.0425,-0.53157 -0.0852,-1.06832 -0.0852,-1.625 z"
           id="path4064"
           transform="matrix(1.0114928,0,0,0.8038539,-0.00268515,14.798772)" />
        <path
           style="fill:url(#radialGradient4646);fill-opacity:1;stroke:none"
           d="m 245.71428,122.20804 43.57143,-11.67492 c 10.4422,-2.79798 18.84874,3.35603 18.84874,13.79823 0,10.44221 -8.40654,21.10128 -18.84874,23.89926 l -43.57143,11.67492 c -10.4422,2.79798 -18.84874,-3.35603 -18.84874,-13.79824 0,-10.4422 8.40654,-21.10127 18.84874,-23.89925 z"
           id="rect2816" />
        <path
           id="path3702"
           d="m 248.45869,124.4013 37.07245,-9.93352 c 8.88467,-2.38064 16.03731,2.85546 16.03731,11.74013 0,8.88468 -7.15264,17.95387 -16.03731,20.33452 l -37.07245,9.93352 c -8.88467,2.38064 -16.03731,-2.85546 -16.03731,-11.74014 0,-8.88467 7.15264,-17.95386 16.03731,-20.33451 z"
           style="fill:url(#radialGradient4648);fill-opacity:1;stroke:none" />
        <path
           style="fill:url(#linearGradient4650);fill-opacity:1;stroke:none;filter:url(#filter3676)"
           d="m 309.88393,97.504464 c -2.34947,0.02784 -4.83279,0.350066 -7.375,1.03125 l -67.875,18.187496 c -16.27012,4.35956 -29.375,20.97989 -29.375,37.25 0,16.27013 13.10488,25.85958 29.375,21.5 l 67.875,-18.1875 c 16.27012,-4.35956 29.375,-20.97987 29.375,-37.25 0,-13.72791 -9.31288,-22.681574 -22,-22.531246 z m -16.6875,16.718746 c 6.9056,0.28854 11.90625,5.37327 11.90625,13 0,9.38676 -7.55075,18.95358 -16.9375,21.46875 l -39.1875,10.5 c -9.38675,2.51518 -16.9375,-3.01949 -16.9375,-12.40625 0,-9.38675 7.55075,-18.95358 16.9375,-21.46875 l 39.1875,-10.5 c 1.76002,-0.4716 3.43765,-0.66034 5.03125,-0.59375 z"
           id="path3633"
           clip-path="url(#clipPath3688)" />
        <path
           style="fill:url(#radialGradient4652);fill-opacity:1;stroke:none"
           d="m 253.5625,89.875 c -1.37244,0.0512 -2.81282,0.262784 -4.28125,0.65625 l 40,20 c 3.91582,-1.04924 7.55517,-0.84756 10.5625,0.375 l -39.625,-19.84375 c -1.56469,-0.782225 -3.39198,-1.107254 -5.3125,-1.1875 -0.4432,-0.01852 -0.88627,-0.01707 -1.34375,0 z m 47.71875,21.75 c 0.4651,0.2589 0.91789,0.532 1.34375,0.84375 -0.40803,-0.30036 -0.80767,-0.59137 -1.25,-0.8125 l -0.0937,-0.0312 z"
           id="path3591"
           sodipodi:nodetypes="cccccsccscc" />
        <path
           id="path3599"
           d="m 249.28125,90.53125 -43.5625,11.6875 40,20 43.5625,-11.6875 -40,-20 z"
           style="fill:url(#radialGradient4654);fill-opacity:1;stroke:none"
           sodipodi:nodetypes="ccccc" />
        <path
           style="fill:url(#radialGradient4656);fill-opacity:1;stroke:none"
           d="m 205.71875,102.21875 c -10.4422,2.79798 -18.84375,13.4328 -18.84375,23.875 l 40,20 c 0,-10.4422 8.40155,-21.07702 18.84375,-23.875 l -40,-20 z"
           id="path3601"
           sodipodi:nodetypes="ccccc" />
        <path
           id="path3603"
           d="m 186.875,126.09375 c 0,5.2211 2.09434,9.3774 5.5,11.875 0.85142,0.6244 1.81167,1.08189 2.78125,1.5625 l 38.5625,19.28125 c -4.18588,-2.33006 -6.84375,-6.84501 -6.84375,-12.71875 l -40,-20 z m 48.28125,33.4375 c 0.48392,0.24196 1.02411,0.39397 1.5625,0.53125 -0.53423,-0.14635 -1.06128,-0.32749 -1.5625,-0.53125 z"
           style="fill:url(#radialGradient4658);fill-opacity:1;stroke:none"
           sodipodi:nodetypes="cscccccsc" />
        <path
           sodipodi:nodetypes="cccc"
           style="fill:url(#linearGradient4660);fill-opacity:1;stroke:none"
           d="m 250.63021,91.018098 -41.94083,11.252412 15.82661,7.91331 c -10.15828,-10.277175 8.56748,-12.188396 26.11422,-19.165722 z"
           id="path3708" />
        <path
           sodipodi:nodetypes="ccccc"
           id="path3710"
           d="m 205.5737,103.73398 c -9.60449,2.57352 -17.33204,12.35518 -17.33204,21.95967 l 1.9342,0.9671 c 1.15455,-14.25976 16.14174,-19.85521 24.69261,-18.27938 l -9.29477,-4.64739 z"
           style="fill:url(#linearGradient4662);fill-opacity:1;stroke:none" />
        <g
           id="g3804"
           transform="translate(-16,0)">
          <path
             style="fill:#1c2224;fill-opacity:1;stroke:none;filter:url(#filter3800)"
             d="m 271.65625,127.75 c -0.81621,0.0348 -1.65893,0.17251 -2.53125,0.40625 -6.20317,1.66214 -11.21875,8.01558 -11.21875,14.21875 0,2.26995 0.6564,4.19808 1.8125,5.65625 0.57806,0.72909 1.29682,1.33891 2.09375,1.8125 l 4.0625,2.0625 c -2.43938,-1.40669 -3.96875,-4.0882 -3.96875,-7.53125 0,-6.20317 5.01558,-12.55661 11.21875,-14.21875 2.32619,-0.6233 4.48864,-0.51199 6.28125,0.21875 l -4,-2 c -0.8652,-0.42664 -1.88239,-0.57955 -2.9375,-0.625 -0.26378,-0.0114 -0.54043,-0.0116 -0.8125,0 z"
             id="path3798" />
          <path
             id="path3778"
             d="m 271.65625,127.75 c -0.81621,0.0348 -1.65893,0.17251 -2.53125,0.40625 -6.20317,1.66214 -11.21875,8.01558 -11.21875,14.21875 0,2.26995 0.6564,4.19808 1.8125,5.65625 0.57806,0.72909 1.29682,1.33891 2.09375,1.8125 l 4.0625,2.0625 c -2.43938,-1.40669 -3.96875,-4.0882 -3.96875,-7.53125 0,-6.20317 5.01558,-12.55661 11.21875,-14.21875 2.32619,-0.6233 4.48864,-0.51199 6.28125,0.21875 l -4,-2 c -0.8652,-0.42664 -1.88239,-0.57955 -2.9375,-0.625 -0.26378,-0.0114 -0.54043,-0.0116 -0.8125,0 z"
             style="fill:url(#radialGradient4664);fill-opacity:1;stroke:none" />
          <path
             id="path3724"
             d="m 388.57142,125.21932 c 0,7.69254 -6.23603,13.92857 -13.92857,13.92857 -7.69253,0 -13.92857,-6.23603 -13.92857,-13.92857 0,-7.69254 6.23604,-13.92857 13.92857,-13.92857 7.69254,0 13.92857,6.23603 13.92857,13.92857 z"
             style="fill:url(#radialGradient4711);fill-opacity:1;stroke:none"
             transform="matrix(0.80638827,-0.21607109,0,0.80638827,-28.982575,121.35007)" />
          <path
             id="path3722"
             d="m 388.57142,125.21932 c 0,7.69254 -6.23603,13.92857 -13.92857,13.92857 -7.69253,0 -13.92857,-6.23603 -13.92857,-13.92857 0,-7.69254 6.23604,-13.92857 13.92857,-13.92857 7.69254,0 13.92857,6.23603 13.92857,13.92857 z"
             style="fill:url(#radialGradient4713);fill-opacity:1;stroke:none"
             transform="matrix(0.70532339,-0.18899083,0,0.70532339,8.52349,123.49009)" />
          <path
             id="path3757"
             d="m 275.25,132.34375 c -0.78541,-0.0338 -1.60295,0.0805 -2.46875,0.3125 -4.6176,1.23728 -8.375,5.97615 -8.375,10.59375 0,0.7088 0.084,1.35601 0.25,1.96875 1.44228,-3.68711 5.76334,-7.02596 10.875,-8.03125 1.96602,-0.38665 3.82342,-0.38862 5.4375,-0.0625 -0.61256,-2.82938 -2.8389,-4.65718 -5.71875,-4.78125 z"
             style="fill:url(#radialGradient4670);fill-opacity:1;stroke:none" />
          <path
             id="path3766"
             d="m 388.57142,125.21932 c 0,7.69254 -6.23603,13.92857 -13.92857,13.92857 -7.69253,0 -13.92857,-6.23603 -13.92857,-13.92857 0,-7.69254 6.23604,-13.92857 13.92857,-13.92857 7.69254,0 13.92857,6.23603 13.92857,13.92857 z"
             style="fill:#ffffff;fill-opacity:0.15283843;stroke:none"
             transform="matrix(0.28332119,-0.07591569,0,0.28332119,168.18513,136.35019)" />
          <path
             id="path3770"
             d="m 388.57142,125.21932 c 0,7.69254 -6.23603,13.92857 -13.92857,13.92857 -7.69253,0 -13.92857,-6.23603 -13.92857,-13.92857 0,-7.69254 6.23604,-13.92857 13.92857,-13.92857 7.69254,0 13.92857,6.23603 13.92857,13.92857 z"
             style="fill:#ffffff;fill-opacity:0.15283843;stroke:none"
             transform="matrix(0.16951399,-0.04542114,0,0.16951399,212.40736,140.81798)" />
        </g>
        <g
           transform="translate(14,-8)"
           id="g3821">
          <path
             id="path3823"
             d="m 271.65625,127.75 c -0.81621,0.0348 -1.65893,0.17251 -2.53125,0.40625 -6.20317,1.66214 -11.21875,8.01558 -11.21875,14.21875 0,2.26995 0.6564,4.19808 1.8125,5.65625 0.57806,0.72909 1.29682,1.33891 2.09375,1.8125 l 4.0625,2.0625 c -2.43938,-1.40669 -3.96875,-4.0882 -3.96875,-7.53125 0,-6.20317 5.01558,-12.55661 11.21875,-14.21875 2.32619,-0.6233 4.48864,-0.51199 6.28125,0.21875 l -4,-2 c -0.8652,-0.42664 -1.88239,-0.57955 -2.9375,-0.625 -0.26378,-0.0114 -0.54043,-0.0116 -0.8125,0 z"
             style="fill:#1c2224;fill-opacity:1;stroke:none;filter:url(#filter3800)" />
          <path
             style="fill:url(#radialGradient4672);fill-opacity:1;stroke:none"
             d="m 271.65625,127.75 c -0.81621,0.0348 -1.65893,0.17251 -2.53125,0.40625 -6.20317,1.66214 -11.21875,8.01558 -11.21875,14.21875 0,2.26995 0.6564,4.19808 1.8125,5.65625 0.57806,0.72909 1.29682,1.33891 2.09375,1.8125 l 4.0625,2.0625 c -2.43938,-1.40669 -3.96875,-4.0882 -3.96875,-7.53125 0,-6.20317 5.01558,-12.55661 11.21875,-14.21875 2.32619,-0.6233 4.48864,-0.51199 6.28125,0.21875 l -4,-2 c -0.8652,-0.42664 -1.88239,-0.57955 -2.9375,-0.625 -0.26378,-0.0114 -0.54043,-0.0116 -0.8125,0 z"
             id="path3825" />
          <path
             id="path3827"
             d="m 388.57142,125.21932 c 0,7.69254 -6.23603,13.92857 -13.92857,13.92857 -7.69253,0 -13.92857,-6.23603 -13.92857,-13.92857 0,-7.69254 6.23604,-13.92857 13.92857,-13.92857 7.69254,0 13.92857,6.23603 13.92857,13.92857 z"
             style="fill:url(#radialGradient4715);fill-opacity:1;stroke:none"
             transform="matrix(0.80638827,-0.21607109,0,0.80638827,-28.982575,121.35007)" />
          <path
             id="path3829"
             d="m 388.57142,125.21932 c 0,7.69254 -6.23603,13.92857 -13.92857,13.92857 -7.69253,0 -13.92857,-6.23603 -13.92857,-13.92857 0,-7.69254 6.23604,-13.92857 13.92857,-13.92857 7.69254,0 13.92857,6.23603 13.92857,13.92857 z"
             style="fill:url(#radialGradient4717);fill-opacity:1;stroke:none"
             transform="matrix(0.70532339,-0.18899083,0,0.70532339,8.52349,123.49009)" />
          <path
             style="fill:url(#radialGradient4678);fill-opacity:1;stroke:none"
             d="m 275.25,132.34375 c -0.78541,-0.0338 -1.60295,0.0805 -2.46875,0.3125 -4.6176,1.23728 -8.375,5.97615 -8.375,10.59375 0,0.7088 0.084,1.35601 0.25,1.96875 1.44228,-3.68711 5.76334,-7.02596 10.875,-8.03125 1.96602,-0.38665 3.82342,-0.38862 5.4375,-0.0625 -0.61256,-2.82938 -2.8389,-4.65718 -5.71875,-4.78125 z"
             id="path3831" />
          <path
             id="path3833"
             d="m 388.57142,125.21932 c 0,7.69254 -6.23603,13.92857 -13.92857,13.92857 -7.69253,0 -13.92857,-6.23603 -13.92857,-13.92857 0,-7.69254 6.23604,-13.92857 13.92857,-13.92857 7.69254,0 13.92857,6.23603 13.92857,13.92857 z"
             style="fill:#ffffff;fill-opacity:0.15283843;stroke:none"
             transform="matrix(0.28332119,-0.07591569,0,0.28332119,168.18513,136.35019)" />
          <path
             id="path3835"
             d="m 388.57142,125.21932 c 0,7.69254 -6.23603,13.92857 -13.92857,13.92857 -7.69253,0 -13.92857,-6.23603 -13.92857,-13.92857 0,-7.69254 6.23604,-13.92857 13.92857,-13.92857 7.69254,0 13.92857,6.23603 13.92857,13.92857 z"
             style="fill:#ffffff;fill-opacity:0.15283843;stroke:none"
             transform="matrix(0.16951399,-0.04542114,0,0.16951399,212.40736,140.81798)" />
        </g>
        <g
           id="g4398"
           transform="matrix(1.0415647,0,0,1.0415647,-37.308076,11.321611)">
          <path
             style="fill:#000000;fill-opacity:0.5414847;stroke:none;filter:url(#filter4394)"
             d="m 237.42331,110.77978 c 36.33199,-1.65959 30.73792,-21.98476 42.97464,-49.293849 -23.7519,25.988299 -54.45273,15.659998 -42.97464,49.293849 z"
             id="path4390"
             sodipodi:nodetypes="ccc" />
          <path
             sodipodi:nodetypes="ccc"
             id="path4375"
             d="m 237.44421,110.75532 c 36.27892,-1.83649 30.48193,-24.32818 42.42641,-54.548234 -23.46178,28.758474 -54.23808,17.329247 -42.42641,54.548234 z"
             style="fill:url(#linearGradient4680);fill-opacity:1;stroke:#44aa00;stroke-width:1px;stroke-linecap:butt;stroke-linejoin:miter;stroke-opacity:1" />
          <path
             id="path4377"
             d="m 272.8125,66.8125 -35.90625,42.0625 c 0.18083,0.62179 0.32462,1.22391 0.53125,1.875 0.35617,-0.018 0.68314,-0.0405 1.03125,-0.0625 l 34.34375,-43.875 z"
             style="fill:#5aa72d;fill-opacity:1;stroke:none" />
        </g>
      </g>
    </g>
  </g>
</svg>
